M48
; DRILL file {KiCad 6.0.5+dfsg-1~bpo11+1} date Tue Aug 16 04:58:47 2022
; FORMAT={-:-/ absolute / metric / decimal}
; #@! TF.CreationDate,2022-08-16T04:58:47+00:00
; #@! TF.GenerationSoftware,Kicad,Pcbnew,6.0.5+dfsg-1~bpo11+1
; #@! TF.FileFunction,MixedPlating,1,2
FMAT,2
METRIC
; #@! TA.AperFunction,Plated,PTH,ViaDrill
T1C0.400
; #@! TA.AperFunction,Plated,PTH,ComponentDrill
T2C0.700
; #@! TA.AperFunction,Plated,PTH,ComponentDrill
T3C1.000
%
G90
G05
T1
X145.7Y-83.3
X146.1Y-93.0
X147.2Y-97.3
X147.4Y-82.7
X147.9Y-86.5
X149.9Y-79.8
X152.9Y-79.6
X153.1Y-71.1
X153.1Y-75.0
X156.4Y-90.5
X156.9Y-85.8
X157.0Y-95.7
X157.9Y-88.1
X158.1Y-72.4
T2
X141.855Y-73.07
X141.855Y-74.34
X141.855Y-75.61
X141.855Y-76.88
X141.855Y-78.15
X141.855Y-79.42
X141.855Y-80.69
X141.855Y-81.96
X141.855Y-83.23
X141.855Y-84.5
X141.855Y-85.77
X141.855Y-87.04
X141.855Y-88.31
X141.855Y-89.58
X141.855Y-90.85
X141.855Y-92.12
X141.855Y-93.39
X141.855Y-94.66
X141.855Y-95.93
X141.855Y-97.2
X143.125Y-73.07
X143.125Y-74.34
X143.125Y-75.61
X143.125Y-76.88
X143.125Y-78.15
X143.125Y-79.42
X143.125Y-80.69
X143.125Y-81.96
X143.125Y-83.23
X143.125Y-84.5
X143.125Y-85.77
X143.125Y-87.04
X143.125Y-88.31
X143.125Y-89.58
X143.125Y-90.85
X143.125Y-92.12
X143.125Y-93.39
X143.125Y-94.66
X143.125Y-95.93
X143.125Y-97.2
T3
X147.96Y-73.12
X147.96Y-77.0
X150.5Y-73.12
X150.5Y-77.0
X150.5Y-85.5
X150.5Y-88.04
X150.5Y-90.58
X150.5Y-93.12
X150.5Y-95.66
X153.04Y-85.5
X153.04Y-88.04
X153.04Y-90.58
X153.04Y-93.12
X153.04Y-95.66
X155.5Y-73.46
X155.5Y-76.0
X155.5Y-78.54
X160.225Y-73.695
X160.225Y-76.235
X160.225Y-78.775
X160.225Y-81.315
X160.225Y-83.855
X160.225Y-86.395
X160.225Y-88.935
X160.225Y-91.475
X160.225Y-94.015
X160.225Y-96.555
X162.765Y-73.695
X162.765Y-76.235
X162.765Y-78.775
X162.765Y-81.315
X162.765Y-83.855
X162.765Y-86.395
X162.765Y-88.935
X162.765Y-91.475
X162.765Y-94.015
X162.765Y-96.555
T0
M30
