G04 #@! TF.GenerationSoftware,KiCad,Pcbnew,6.0.5+dfsg-1~bpo11+1*
G04 #@! TF.CreationDate,2022-08-16T04:58:47+00:00*
G04 #@! TF.ProjectId,olimex_stm32mp1_jtag,6f6c696d-6578-45f7-9374-6d33326d7031,rev?*
G04 #@! TF.SameCoordinates,Original*
G04 #@! TF.FileFunction,Soldermask,Bot*
G04 #@! TF.FilePolarity,Negative*
%FSLAX46Y46*%
G04 Gerber Fmt 4.6, Leading zero omitted, Abs format (unit mm)*
G04 Created by KiCad (PCBNEW 6.0.5+dfsg-1~bpo11+1) date 2022-08-16 04:58:47*
%MOMM*%
%LPD*%
G01*
G04 APERTURE LIST*
%ADD10R,1.700000X1.700000*%
%ADD11O,1.700000X1.700000*%
%ADD12R,1.000000X1.000000*%
%ADD13O,1.000000X1.000000*%
G04 APERTURE END LIST*
D10*
X150500000Y-73120000D03*
D11*
X147960000Y-73120000D03*
D10*
X150500000Y-77000000D03*
D11*
X147960000Y-77000000D03*
D10*
X155500000Y-78540000D03*
D11*
X155500000Y-76000000D03*
X155500000Y-73460000D03*
D10*
X150500000Y-85500000D03*
D11*
X153040000Y-85500000D03*
X150500000Y-88040000D03*
X153040000Y-88040000D03*
X150500000Y-90580000D03*
X153040000Y-90580000D03*
X150500000Y-93120000D03*
X153040000Y-93120000D03*
X150500000Y-95660000D03*
X153040000Y-95660000D03*
D10*
X160225000Y-73695000D03*
D11*
X162765000Y-73695000D03*
X160225000Y-76235000D03*
X162765000Y-76235000D03*
X160225000Y-78775000D03*
X162765000Y-78775000D03*
X160225000Y-81315000D03*
X162765000Y-81315000D03*
X160225000Y-83855000D03*
X162765000Y-83855000D03*
X160225000Y-86395000D03*
X162765000Y-86395000D03*
X160225000Y-88935000D03*
X162765000Y-88935000D03*
X160225000Y-91475000D03*
X162765000Y-91475000D03*
X160225000Y-94015000D03*
X162765000Y-94015000D03*
X160225000Y-96555000D03*
X162765000Y-96555000D03*
D12*
X141855000Y-73070000D03*
D13*
X143125000Y-73070000D03*
X141855000Y-74340000D03*
X143125000Y-74340000D03*
X141855000Y-75610000D03*
X143125000Y-75610000D03*
X141855000Y-76880000D03*
X143125000Y-76880000D03*
X141855000Y-78150000D03*
X143125000Y-78150000D03*
X141855000Y-79420000D03*
X143125000Y-79420000D03*
X141855000Y-80690000D03*
X143125000Y-80690000D03*
X141855000Y-81960000D03*
X143125000Y-81960000D03*
X141855000Y-83230000D03*
X143125000Y-83230000D03*
X141855000Y-84500000D03*
X143125000Y-84500000D03*
X141855000Y-85770000D03*
X143125000Y-85770000D03*
X141855000Y-87040000D03*
X143125000Y-87040000D03*
X141855000Y-88310000D03*
X143125000Y-88310000D03*
X141855000Y-89580000D03*
X143125000Y-89580000D03*
X141855000Y-90850000D03*
X143125000Y-90850000D03*
X141855000Y-92120000D03*
X143125000Y-92120000D03*
X141855000Y-93390000D03*
X143125000Y-93390000D03*
X141855000Y-94660000D03*
X143125000Y-94660000D03*
X141855000Y-95930000D03*
X143125000Y-95930000D03*
X141855000Y-97200000D03*
X143125000Y-97200000D03*
M02*
