G04 #@! TF.GenerationSoftware,KiCad,Pcbnew,6.0.5+dfsg-1~bpo11+1*
G04 #@! TF.CreationDate,2022-08-16T04:58:47+00:00*
G04 #@! TF.ProjectId,olimex_stm32mp1_jtag,6f6c696d-6578-45f7-9374-6d33326d7031,rev?*
G04 #@! TF.SameCoordinates,Original*
G04 #@! TF.FileFunction,Legend,Bot*
G04 #@! TF.FilePolarity,Positive*
%FSLAX46Y46*%
G04 Gerber Fmt 4.6, Leading zero omitted, Abs format (unit mm)*
G04 Created by KiCad (PCBNEW 6.0.5+dfsg-1~bpo11+1) date 2022-08-16 04:58:47*
%MOMM*%
%LPD*%
G01*
G04 APERTURE LIST*
%ADD10C,0.150000*%
%ADD11C,0.120000*%
%ADD12R,1.700000X1.700000*%
%ADD13O,1.700000X1.700000*%
%ADD14R,1.000000X1.000000*%
%ADD15O,1.000000X1.000000*%
G04 APERTURE END LIST*
D10*
X142823333Y-70387380D02*
X142823333Y-71101666D01*
X142870952Y-71244523D01*
X142966190Y-71339761D01*
X143109047Y-71387380D01*
X143204285Y-71387380D01*
X142442380Y-70387380D02*
X141823333Y-70387380D01*
X142156666Y-70768333D01*
X142013809Y-70768333D01*
X141918571Y-70815952D01*
X141870952Y-70863571D01*
X141823333Y-70958809D01*
X141823333Y-71196904D01*
X141870952Y-71292142D01*
X141918571Y-71339761D01*
X142013809Y-71387380D01*
X142299523Y-71387380D01*
X142394761Y-71339761D01*
X142442380Y-71292142D01*
D11*
X144075000Y-97895000D02*
X143432530Y-97895000D01*
X142817470Y-72375000D02*
X142615000Y-72375000D01*
X140905000Y-73705000D02*
X140905000Y-97895000D01*
X144075000Y-72375000D02*
X143432530Y-72375000D01*
X142817470Y-97895000D02*
X142162530Y-97895000D01*
X141855000Y-72310000D02*
X140905000Y-72310000D01*
X141095000Y-73705000D02*
X140905000Y-73705000D01*
X141547470Y-97895000D02*
X140905000Y-97895000D01*
X140905000Y-72310000D02*
X140905000Y-73070000D01*
X144075000Y-72375000D02*
X144075000Y-97895000D01*
%LPC*%
D12*
X150500000Y-73120000D03*
D13*
X147960000Y-73120000D03*
D12*
X150500000Y-77000000D03*
D13*
X147960000Y-77000000D03*
D12*
X155500000Y-78540000D03*
D13*
X155500000Y-76000000D03*
X155500000Y-73460000D03*
D12*
X150500000Y-85500000D03*
D13*
X153040000Y-85500000D03*
X150500000Y-88040000D03*
X153040000Y-88040000D03*
X150500000Y-90580000D03*
X153040000Y-90580000D03*
X150500000Y-93120000D03*
X153040000Y-93120000D03*
X150500000Y-95660000D03*
X153040000Y-95660000D03*
D12*
X160225000Y-73695000D03*
D13*
X162765000Y-73695000D03*
X160225000Y-76235000D03*
X162765000Y-76235000D03*
X160225000Y-78775000D03*
X162765000Y-78775000D03*
X160225000Y-81315000D03*
X162765000Y-81315000D03*
X160225000Y-83855000D03*
X162765000Y-83855000D03*
X160225000Y-86395000D03*
X162765000Y-86395000D03*
X160225000Y-88935000D03*
X162765000Y-88935000D03*
X160225000Y-91475000D03*
X162765000Y-91475000D03*
X160225000Y-94015000D03*
X162765000Y-94015000D03*
X160225000Y-96555000D03*
X162765000Y-96555000D03*
D14*
X141855000Y-73070000D03*
D15*
X143125000Y-73070000D03*
X141855000Y-74340000D03*
X143125000Y-74340000D03*
X141855000Y-75610000D03*
X143125000Y-75610000D03*
X141855000Y-76880000D03*
X143125000Y-76880000D03*
X141855000Y-78150000D03*
X143125000Y-78150000D03*
X141855000Y-79420000D03*
X143125000Y-79420000D03*
X141855000Y-80690000D03*
X143125000Y-80690000D03*
X141855000Y-81960000D03*
X143125000Y-81960000D03*
X141855000Y-83230000D03*
X143125000Y-83230000D03*
X141855000Y-84500000D03*
X143125000Y-84500000D03*
X141855000Y-85770000D03*
X143125000Y-85770000D03*
X141855000Y-87040000D03*
X143125000Y-87040000D03*
X141855000Y-88310000D03*
X143125000Y-88310000D03*
X141855000Y-89580000D03*
X143125000Y-89580000D03*
X141855000Y-90850000D03*
X143125000Y-90850000D03*
X141855000Y-92120000D03*
X143125000Y-92120000D03*
X141855000Y-93390000D03*
X143125000Y-93390000D03*
X141855000Y-94660000D03*
X143125000Y-94660000D03*
X141855000Y-95930000D03*
X143125000Y-95930000D03*
X141855000Y-97200000D03*
X143125000Y-97200000D03*
M02*
