G04 #@! TF.GenerationSoftware,KiCad,Pcbnew,6.0.5+dfsg-1~bpo11+1*
G04 #@! TF.CreationDate,2022-08-16T04:58:47+00:00*
G04 #@! TF.ProjectId,olimex_stm32mp1_jtag,6f6c696d-6578-45f7-9374-6d33326d7031,rev?*
G04 #@! TF.SameCoordinates,Original*
G04 #@! TF.FileFunction,Legend,Top*
G04 #@! TF.FilePolarity,Positive*
%FSLAX46Y46*%
G04 Gerber Fmt 4.6, Leading zero omitted, Abs format (unit mm)*
G04 Created by KiCad (PCBNEW 6.0.5+dfsg-1~bpo11+1) date 2022-08-16 04:58:47*
%MOMM*%
%LPD*%
G01*
G04 APERTURE LIST*
%ADD10C,0.522214*%
%ADD11C,0.150000*%
%ADD12C,0.120000*%
%ADD13R,1.700000X1.700000*%
%ADD14O,1.700000X1.700000*%
%ADD15R,1.000000X1.000000*%
%ADD16O,1.000000X1.000000*%
G04 APERTURE END LIST*
D10*
X158461107Y-73700000D02*
G75*
G03*
X158461107Y-73700000I-261107J0D01*
G01*
X148661107Y-85600000D02*
G75*
G03*
X148661107Y-85600000I-261107J0D01*
G01*
D11*
X152452380Y-73933333D02*
X153166666Y-73933333D01*
X153309523Y-73980952D01*
X153404761Y-74076190D01*
X153452380Y-74219047D01*
X153452380Y-74314285D01*
X153452380Y-73457142D02*
X152452380Y-73457142D01*
X152452380Y-73076190D01*
X152500000Y-72980952D01*
X152547619Y-72933333D01*
X152642857Y-72885714D01*
X152785714Y-72885714D01*
X152880952Y-72933333D01*
X152928571Y-72980952D01*
X152976190Y-73076190D01*
X152976190Y-73457142D01*
X152547619Y-72504761D02*
X152500000Y-72457142D01*
X152452380Y-72361904D01*
X152452380Y-72123809D01*
X152500000Y-72028571D01*
X152547619Y-71980952D01*
X152642857Y-71933333D01*
X152738095Y-71933333D01*
X152880952Y-71980952D01*
X153452380Y-72552380D01*
X153452380Y-71933333D01*
X152452380Y-77813333D02*
X153166666Y-77813333D01*
X153309523Y-77860952D01*
X153404761Y-77956190D01*
X153452380Y-78099047D01*
X153452380Y-78194285D01*
X153452380Y-77337142D02*
X152452380Y-77337142D01*
X152452380Y-76956190D01*
X152500000Y-76860952D01*
X152547619Y-76813333D01*
X152642857Y-76765714D01*
X152785714Y-76765714D01*
X152880952Y-76813333D01*
X152928571Y-76860952D01*
X152976190Y-76956190D01*
X152976190Y-77337142D01*
X152452380Y-76432380D02*
X152452380Y-75813333D01*
X152833333Y-76146666D01*
X152833333Y-76003809D01*
X152880952Y-75908571D01*
X152928571Y-75860952D01*
X153023809Y-75813333D01*
X153261904Y-75813333D01*
X153357142Y-75860952D01*
X153404761Y-75908571D01*
X153452380Y-76003809D01*
X153452380Y-76289523D01*
X153404761Y-76384761D01*
X153357142Y-76432380D01*
X154666666Y-70452380D02*
X154666666Y-71166666D01*
X154619047Y-71309523D01*
X154523809Y-71404761D01*
X154380952Y-71452380D01*
X154285714Y-71452380D01*
X155142857Y-71452380D02*
X155142857Y-70452380D01*
X155523809Y-70452380D01*
X155619047Y-70500000D01*
X155666666Y-70547619D01*
X155714285Y-70642857D01*
X155714285Y-70785714D01*
X155666666Y-70880952D01*
X155619047Y-70928571D01*
X155523809Y-70976190D01*
X155142857Y-70976190D01*
X156666666Y-71452380D02*
X156095238Y-71452380D01*
X156380952Y-71452380D02*
X156380952Y-70452380D01*
X156285714Y-70595238D01*
X156190476Y-70690476D01*
X156095238Y-70738095D01*
X151436666Y-82622380D02*
X151436666Y-83336666D01*
X151389047Y-83479523D01*
X151293809Y-83574761D01*
X151150952Y-83622380D01*
X151055714Y-83622380D01*
X151865238Y-82717619D02*
X151912857Y-82670000D01*
X152008095Y-82622380D01*
X152246190Y-82622380D01*
X152341428Y-82670000D01*
X152389047Y-82717619D01*
X152436666Y-82812857D01*
X152436666Y-82908095D01*
X152389047Y-83050952D01*
X151817619Y-83622380D01*
X152436666Y-83622380D01*
X161266666Y-70492380D02*
X161266666Y-71206666D01*
X161219047Y-71349523D01*
X161123809Y-71444761D01*
X160980952Y-71492380D01*
X160885714Y-71492380D01*
X162266666Y-71492380D02*
X161695238Y-71492380D01*
X161980952Y-71492380D02*
X161980952Y-70492380D01*
X161885714Y-70635238D01*
X161790476Y-70730476D01*
X161695238Y-70778095D01*
D12*
X149230000Y-71790000D02*
X146630000Y-71790000D01*
X150500000Y-71790000D02*
X151830000Y-71790000D01*
X149230000Y-71790000D02*
X149230000Y-74450000D01*
X146630000Y-71790000D02*
X146630000Y-74450000D01*
X151830000Y-71790000D02*
X151830000Y-73120000D01*
X149230000Y-74450000D02*
X146630000Y-74450000D01*
X150500000Y-75670000D02*
X151830000Y-75670000D01*
X149230000Y-75670000D02*
X149230000Y-78330000D01*
X149230000Y-75670000D02*
X146630000Y-75670000D01*
X146630000Y-75670000D02*
X146630000Y-78330000D01*
X151830000Y-75670000D02*
X151830000Y-77000000D01*
X149230000Y-78330000D02*
X146630000Y-78330000D01*
X156830000Y-77270000D02*
X156830000Y-72130000D01*
X156830000Y-77270000D02*
X154170000Y-77270000D01*
X156830000Y-78540000D02*
X156830000Y-79870000D01*
X156830000Y-72130000D02*
X154170000Y-72130000D01*
X156830000Y-79870000D02*
X155500000Y-79870000D01*
X154170000Y-77270000D02*
X154170000Y-72130000D01*
X149170000Y-85500000D02*
X149170000Y-84170000D01*
X149170000Y-86770000D02*
X151770000Y-86770000D01*
X151770000Y-86770000D02*
X151770000Y-84170000D01*
X154370000Y-84170000D02*
X154370000Y-96990000D01*
X149170000Y-84170000D02*
X150500000Y-84170000D01*
X149170000Y-86770000D02*
X149170000Y-96990000D01*
X151770000Y-84170000D02*
X154370000Y-84170000D01*
X149170000Y-96990000D02*
X154370000Y-96990000D01*
X158895000Y-73695000D02*
X158895000Y-72365000D01*
X158895000Y-72365000D02*
X160225000Y-72365000D01*
X158895000Y-97885000D02*
X164095000Y-97885000D01*
X161495000Y-74965000D02*
X161495000Y-72365000D01*
X164095000Y-72365000D02*
X164095000Y-97885000D01*
X161495000Y-72365000D02*
X164095000Y-72365000D01*
X158895000Y-74965000D02*
X158895000Y-97885000D01*
X158895000Y-74965000D02*
X161495000Y-74965000D01*
%LPC*%
D13*
X150500000Y-73120000D03*
D14*
X147960000Y-73120000D03*
D13*
X150500000Y-77000000D03*
D14*
X147960000Y-77000000D03*
D13*
X155500000Y-78540000D03*
D14*
X155500000Y-76000000D03*
X155500000Y-73460000D03*
D13*
X150500000Y-85500000D03*
D14*
X153040000Y-85500000D03*
X150500000Y-88040000D03*
X153040000Y-88040000D03*
X150500000Y-90580000D03*
X153040000Y-90580000D03*
X150500000Y-93120000D03*
X153040000Y-93120000D03*
X150500000Y-95660000D03*
X153040000Y-95660000D03*
D13*
X160225000Y-73695000D03*
D14*
X162765000Y-73695000D03*
X160225000Y-76235000D03*
X162765000Y-76235000D03*
X160225000Y-78775000D03*
X162765000Y-78775000D03*
X160225000Y-81315000D03*
X162765000Y-81315000D03*
X160225000Y-83855000D03*
X162765000Y-83855000D03*
X160225000Y-86395000D03*
X162765000Y-86395000D03*
X160225000Y-88935000D03*
X162765000Y-88935000D03*
X160225000Y-91475000D03*
X162765000Y-91475000D03*
X160225000Y-94015000D03*
X162765000Y-94015000D03*
X160225000Y-96555000D03*
X162765000Y-96555000D03*
D15*
X141855000Y-73070000D03*
D16*
X143125000Y-73070000D03*
X141855000Y-74340000D03*
X143125000Y-74340000D03*
X141855000Y-75610000D03*
X143125000Y-75610000D03*
X141855000Y-76880000D03*
X143125000Y-76880000D03*
X141855000Y-78150000D03*
X143125000Y-78150000D03*
X141855000Y-79420000D03*
X143125000Y-79420000D03*
X141855000Y-80690000D03*
X143125000Y-80690000D03*
X141855000Y-81960000D03*
X143125000Y-81960000D03*
X141855000Y-83230000D03*
X143125000Y-83230000D03*
X141855000Y-84500000D03*
X143125000Y-84500000D03*
X141855000Y-85770000D03*
X143125000Y-85770000D03*
X141855000Y-87040000D03*
X143125000Y-87040000D03*
X141855000Y-88310000D03*
X143125000Y-88310000D03*
X141855000Y-89580000D03*
X143125000Y-89580000D03*
X141855000Y-90850000D03*
X143125000Y-90850000D03*
X141855000Y-92120000D03*
X143125000Y-92120000D03*
X141855000Y-93390000D03*
X143125000Y-93390000D03*
X141855000Y-94660000D03*
X143125000Y-94660000D03*
X141855000Y-95930000D03*
X143125000Y-95930000D03*
X141855000Y-97200000D03*
X143125000Y-97200000D03*
M02*
