M48
; DRILL file {KiCad 6.0.5+dfsg-1~bpo11+1} date Tue Aug 16 04:58:47 2022
; FORMAT={-:-/ absolute / inch / decimal}
; #@! TF.CreationDate,2022-08-16T04:58:47+00:00
; #@! TF.GenerationSoftware,Kicad,Pcbnew,6.0.5+dfsg-1~bpo11+1
; #@! TF.FileFunction,Plated,1,2,PTH
FMAT,2
INCH
; #@! TA.AperFunction,Plated,PTH,ViaDrill
T1C0.0157
; #@! TA.AperFunction,Plated,PTH,ComponentDrill
T2C0.0276
; #@! TA.AperFunction,Plated,PTH,ComponentDrill
T3C0.0394
%
G90
G05
T1
X5.7362Y-3.2795
X5.752Y-3.6614
X5.7953Y-3.8307
X5.8031Y-3.2559
X5.8228Y-3.4055
X5.9016Y-3.1417
X6.0197Y-3.1339
X6.0276Y-2.7992
X6.0276Y-2.9528
X6.1575Y-3.563
X6.1772Y-3.378
X6.1811Y-3.7677
X6.2165Y-3.4685
X6.2244Y-2.8504
T2
X5.5848Y-2.8768
X5.5848Y-2.9268
X5.5848Y-2.9768
X5.5848Y-3.0268
X5.5848Y-3.0768
X5.5848Y-3.1268
X5.5848Y-3.1768
X5.5848Y-3.2268
X5.5848Y-3.2768
X5.5848Y-3.3268
X5.5848Y-3.3768
X5.5848Y-3.4268
X5.5848Y-3.4768
X5.5848Y-3.5268
X5.5848Y-3.5768
X5.5848Y-3.6268
X5.5848Y-3.6768
X5.5848Y-3.7268
X5.5848Y-3.7768
X5.5848Y-3.8268
X5.6348Y-2.8768
X5.6348Y-2.9268
X5.6348Y-2.9768
X5.6348Y-3.0268
X5.6348Y-3.0768
X5.6348Y-3.1268
X5.6348Y-3.1768
X5.6348Y-3.2268
X5.6348Y-3.2768
X5.6348Y-3.3268
X5.6348Y-3.3768
X5.6348Y-3.4268
X5.6348Y-3.4768
X5.6348Y-3.5268
X5.6348Y-3.5768
X5.6348Y-3.6268
X5.6348Y-3.6768
X5.6348Y-3.7268
X5.6348Y-3.7768
X5.6348Y-3.8268
T3
X5.8252Y-2.8787
X5.8252Y-3.0315
X5.9252Y-2.8787
X5.9252Y-3.0315
X5.9252Y-3.3661
X5.9252Y-3.4661
X5.9252Y-3.5661
X5.9252Y-3.6661
X5.9252Y-3.7661
X6.0252Y-3.3661
X6.0252Y-3.4661
X6.0252Y-3.5661
X6.0252Y-3.6661
X6.0252Y-3.7661
X6.122Y-2.8921
X6.122Y-2.9921
X6.122Y-3.0921
X6.3081Y-2.9014
X6.3081Y-3.0014
X6.3081Y-3.1014
X6.3081Y-3.2014
X6.3081Y-3.3014
X6.3081Y-3.4014
X6.3081Y-3.5014
X6.3081Y-3.6014
X6.3081Y-3.7014
X6.3081Y-3.8014
X6.4081Y-2.9014
X6.4081Y-3.0014
X6.4081Y-3.1014
X6.4081Y-3.2014
X6.4081Y-3.3014
X6.4081Y-3.4014
X6.4081Y-3.5014
X6.4081Y-3.6014
X6.4081Y-3.7014
X6.4081Y-3.8014
T0
M30
